<svg viewBox="0 0 2967 3273" xmlns="http://www.w3.org/2000/svg" fill-rule="evenodd" clip-rule="evenodd" stroke-linejoin="round" stroke-miterlimit="1.414">
  <path d="M2566.3 887.92l8.95 50.057-9.49-52.39.54 2.333zm-12.42-53.737l8.63 37.353-9.25-39.54.62 2.187zm-14.98-52.71l7.584 26.68-8.224-28.57.64 1.89zm-17.48-51.616l5.948 17.564-6.528-19.03.58 1.47zm-19.91-50.45l3.856 9.774-4.286-10.72.43.95zm-22.26-49.21l1.434 3.17-1.614-3.523.18.352z" fill="#ffcd7f"/>
  <path d="M2575.65 940.196l.013.104-.415-2.323.402 2.22zm-10.03-55.39l.14.78-3.245-14.05 3.105 13.27zm-12.73-54.403l.373 1.594-6.778-23.846 6.405 22.26zm-15.36-53.343l.726 2.52-10.89-32.16 10.164 29.64zm-17.9-52.21l1.213 3.536-15.47-39.205 14.257 35.67zm-20.39-51.004l1.844 4.613-20.4-45.1 18.556 40.48z" fill="#f1c486"/>
  <path d="M2255.58 318.85c91.362 89.487 167.326 194.657 223.493 310.994l1.614 3.522 20.4 45.093 4.286 10.72 15.47 39.2 6.528 19.03 10.9 32.16 8.23 28.57 6.78 23.84 9.25 39.54 3.25 14.05 9.49 52.39.42 2.32c8.65 55.81 13.15 113.01 13.17 171.26v171.77c-198.75-203.44-331.21-559.16-333.26-964.49zm333.31 1542.86v300.64c0 613.238-497.872 1111.11-1111.11 1111.11-613.24 0-1111.11-497.873-1111.11-1111.11v-.62c.25 613.49 498.026 1111.11 1111.11 1111.11 613.24 0 1111.11-497.872 1111.11-1111.11v-300.02z" fill="#f1c486"/>
  <path d="M366.667 2161.73v-300.02h169.496c1.058 12.105 3.703 24.27 8.057 36.23l20.814 57.16c38.29 105.162 154.757 159.452 259.92 121.16l503.774-183.436c-1.9 9.707-2.896 19.736-2.896 29.996 0 85.853 69.702 155.556 155.556 155.556 85.853 0 155.555-69.703 155.555-155.556 0-12.436-1.462-24.534-4.225-36.13l584.918 145.582c58.668 14.602 118.154-21.174 132.756-79.842l14.682-58.992c2.597-10.434 4.452-20.88 5.646-31.73h218.17v300.022c0 613.238-497.873 1111.11-1111.11 1111.11-613.086 0-1110.86-497.623-1111.11-1111.11z" fill="#f1c486"/>
  <path d="M366.667 1283.33c199.068-203.82 331.423-559.424 333.28-964.456C900.193 122.052 1174.917.614 1477.777.614c302.738 0 577.358 121.337 777.8 318.232 2.048 405.323 134.507 761.052 333.26 964.484v-171.77c-.023-58.246-4.523-115.448-13.173-171.263 8.723 55.837 13.226 113.112 13.226 171.43v171.603h90.277c149.477 0 270.833 121.357 270.833 270.834v30.555c0 149.47-121.354 270.83-270.833 270.83h-90.278v6.15h-218.17c-1.2 10.85-3.05 21.29-5.65 31.73l-14.68 58.99c-14.6 58.67-74.09 94.44-132.76 79.84l-584.92-145.58c2.76 11.59 4.22 23.69 4.22 36.13 0 85.85-69.7 155.55-155.56 155.55s-155.56-69.71-155.56-155.56c0-10.26.99-20.29 2.89-30l-503.75 183.45c-105.17 38.29-221.63-16-259.92-121.16l-20.82-57.16c-4.36-11.96-7-24.13-8.06-36.23H366.66v300.02-306.18h-90.27c-149.478 0-270.834-121.36-270.834-270.84v-30.56c0-149.48 121.354-270.83 270.833-270.84h90.27z" fill="#ffcd7f"/>
  <path d="M205.556 1568.61c0-80.794 65.594-146.39 146.388-146.39h25.834v294.446h-25.834c-80.794 0-146.388-65.595-146.388-146.39v-1.666z" fill="#ffbb63"/>
  <circle cx="1083.33" cy="2316.67" r="61.111" fill="#a0a0a0"/>
  <circle cx="1966.67" cy="1544.44" r="116.667" fill="#3e3e3f"/>
  <circle cx="988.889" cy="1544.44" r="116.667" fill="#3e3e3f"/>
  <path d="M2750 1568.61c0-80.794-65.595-146.39-146.39-146.39h-25.832v294.446h25.833c80.8 0 146.39-65.595 146.39-146.39v-1.666z" fill="#ffbb63"/>
  <circle cx="2688.89" cy="1855.56" r="61.111" fill="#a0a0a0"/>
  <path d="M699.948 318.877c-1.86 405.274-134.37 761.06-333.28 964.456V1111.73c.125-310.503 127.7-591.325 333.28-792.853z" fill="#f1c486"/>
  <path d="M835.71 586.145l1.926.23 1.905.363 1.88.496 1.84.625 1.79.75 1.73.87 1.67.99 1.59 1.1 1.51 1.21 1.43 1.31 1.33 1.41 1.23 1.5 1.12 1.58 1.01 1.66.89 1.72.76 1.78.64 1.83.51 1.87.38 1.9.24 1.92.11 1.94-.03 1.93-.16 1.93-.3 1.91-.43 1.89-.56 1.86-.69 1.81-.81 1.76-.93 1.7-1.05 1.63-1.16 1.55-1.27 1.47-.24.26-.14.16-.23.27-.31.36-.36.44-.42.51-.47.58-.5.64-.55.7-.58.74-.61.79-.64.84-.66.88-.67.9-1.45 1.96-1.52 2.07-1.58 2.18-1.63 2.27-1.67 2.35-1.71 2.41-1.73 2.45-1.74 2.49-1.73 2.5-1.73 2.5-1.7 2.49-1.68 2.46-1.64 2.42-1.59 2.37-1.52 2.29-1.45 2.2-1.38 2.1-1.28 1.98-1.17 1.83-1.08 1.7-.46.74-.44.71-.402.66-.36.6-.317.53-.265.46-.214.37-.15.27-.076.13-.03.06-.1.2-.14.28-.13.28-.13.28-.13.28-.12.29-.12.28-.12.283-.12.28-.12.29-.11.29-.11.285-.11.29-.105.29-.1.29-.1.29-.1.29-.1.29-.09.29-.09.29-.09.297-.08.29-.08.29-.08.3-.08.29-.08.29-.07.29-.068.297-.07.29-.06.294-.06.3-.06.29-.05.3-.05.29-.05.29-.05.293-.04.296-.05.29-.04.29-.03.29-.04.29-.03.29-.03.29-.02.29-.02.29-.02.29-.02.29-.01.29-.01.29-.01.29-.01.29-.01.29v.58l.01.28.007.29.01.284.01.28.013.28.014.28.012.28.02.28.02.28.02.28.03.28.03.28.03.28.04.28.04.28.04.277.04.27.05.27.05.27.05.27.05.27.06.27.054.27.06.27.06.26.06.26.067.26.07.27.07.26.07.26.08.26.077.25.08.26.08.255.086.25.09.25.09.25.09.25.09.25.093.25.093.24.1.25.1.24.11.24.11.24.11.24.11.24.11.24.12.237.12.236.12.23.12.23.13.23.13.23.13.227.13.23.14.225.14.22.14.225.14.22.14.22.15.22.14.213.15.22.16.217.16.22.154.21.16.21.167.21.16.21.17.21.17.2.18.2.2.23.425.49.44.5.44.49.43.48.436.48.43.46.43.454.43.45.42.44.42.43.42.42.42.42.42.41.416.4.42.39.417.39.41.39.41.377.41.38.41.37.41.366.41.36.41.352.41.35.41.34.41.34.41.34.38.31.86.683.83.65.84.64.85.63.86.63.87.62.88.62.894.62.91.62.93.62.946.62.96.625.98.63 1.007.63 1.02.64 1.04.644 2.175 1.35 4.59 2.81 2.41 1.482 1.26.78 1.27.8 1.3.82 1.32.84 1.34.86 1.36.88 1.38.9 1.4.93 1.42.96 1.44.99 1.46 1.02 1.48 1.05 1.49 1.08 1.517 1.102 1.53 1.14 1.55 1.176 1.57 1.2 1.58 1.24 1.6 1.28 1.59 1.29.84.69.81.68.82.69.83.7.83.71.83.72.84.73.84.74.85.76.85.76.85.77.89.813.78.728.8.76.79.77.78.77.77.78.75.79.75.79.73.79.72.803.71.815.69.82.68.823.67.83.66.84.65.84.63.85.624.856.61.86.6.86.59.87.57.88.56.873.544.89.53.89.52.89.51.9.49.9.48.903.47.91.455.91.44.915.43.92.41.92.4.92.39.92.374.923.36.93.35.923.34.93.33.93.31.94.3.93.28.93.27.94.26.93.25.933.24.93.22.93.21.93.2.93.19.93.18.93.17.93.16.93.15.928.14.92.13.92.12.92.1.914.09.917.084.91.07.91.06.9.054.91.045.9.03.89.03.89.02.89.01.884v1.76l-.01.873-.02.87-.03.87-.04.87-.045.87-.05.86-.06.85-.06.85-.07.85-.08.85-.08.84-.09.84-.1.84-.1.83-.108.83-.116.82-.11.82-.12.81-.14.86-.26 1.57-.29 1.6-.3 1.58-.32 1.57-.34 1.56-.35 1.54-.37 1.53-.38 1.51-.39 1.5-.4 1.49-.4 1.48-.417 1.46-.43 1.45-.43 1.43-.44 1.42-.44 1.41-.45 1.397-.45 1.38-.45 1.37-.45 1.35-.46 1.34-.46 1.32-.47 1.33-.91 2.56-.91 2.52-.9 2.47-.88 2.404-.86 2.34-.83 2.28-.8 2.21-.77 2.167-.358 1.02-.354 1.02-.34 1-.33.98-.314.96-.3.93-.29.91-.27.89-.26.86-.246.84-.23.81-.21.784-.19.76-.18.72-.16.7-.144.66-.13.63-.11.6-.1.62-.04.21-.04.254-.04.246-.034.23-.03.23-.02.217-.02.2-.01.11.14.07.15.08.17.08.18.08.19.08.21.09.22.08.23.08.25.08.27.09.28.09.3.08.31.09.324.08.34.08.36.08.37.07.38.07.41.07.41.07.43.06.446.06.46.06.47.057.48.05.498.05.503.04.52.03.53.03.54.02.55.02.56.01.57.01.58.004h1.19l.606-.01.613-.01.622-.027.63-.03.64-.035.65-.04.652-.04.66-.05.67-.05.68-.06.68-.06.69-.07.69-.07.7-.08.7-.08.7-.09.705-.09.72-.1.71-.1.72-.103.72-.11.69-.11 1.49-.25 1.464-.252 1.47-.27 1.472-.28 1.476-.292 1.48-.306 1.474-.32 1.47-.33 1.47-.33 1.467-.34 1.46-.35 1.45-.35 1.44-.36 1.43-.36 1.42-.37 1.39-.362 1.376-.37 2.75-.74 2.66-.72 2.59-.71 2.463-.67 1.88-.448 1.91-.31 1.93-.176 1.94-.04 1.93.09 1.92.23 1.91.36 1.875.494 1.832.62 1.783.75 1.74.87 1.67.99 1.59 1.11 1.51 1.22 1.42 1.32 1.33 1.41 1.23 1.5 1.12 1.58 1.003 1.66.89 1.72.77 1.78.64 1.83.51 1.87.38 1.9.24 1.93.11 1.94-.02 1.94-.16 1.93-.3 1.92-.43 1.89-.56 1.86-.68 1.81-.81 1.76-.93 1.7-1.05 1.63-1.16 1.55-1.26 1.47-1.363 1.38-1.455 1.28-1.54 1.17-1.62 1.06-1.69.95-1.76.83-1.81.7-1.85.58-2.44.663-2.6.71-2.78.76-2.93.79-1.55.41-1.576.41-1.61.42-1.64.42-1.67.42-1.705.42-1.74.42-1.76.41-1.79.41-1.82.4-1.84.4-1.87.39-1.89.38-1.91.37-1.94.35-1.96.34-1.94.32-1.026.16-1 .155-1.01.146-1.01.14-1.01.14-1.02.13-1.02.13-1.03.12-1.03.12-1.03.11-1.04.105-1.04.1-1.043.09-1.05.08-1.05.08-1.06.07-1.06.06-1.06.05-1.064.044-1.08.04-1.07.03-1.08.02-1.08.01h-2.17l-1.1-.02-1.1-.03-1.1-.04-1.1-.05-1.11-.064-1.11-.08-1.11-.082-1.114-.1-1.12-.11-1.12-.13-1.13-.14-1.13-.16-1.136-.17-1.14-.19-1.14-.2-1.15-.22-1.15-.24-1.15-.26-1.15-.273-1.15-.29-1.156-.31-1.16-.33-1.16-.35-1.16-.377-1.17-.4-1.163-.42-1.163-.44-1.166-.47-1.16-.5-1.16-.52-1.16-.546-1.156-.58-1.15-.6-1.144-.63-1.14-.66-1.13-.688-1.12-.72-1.12-.75-1.11-.77-1.03-.76-.603-.46-.54-.42-.53-.426-.533-.44-.53-.45-.523-.45-.52-.46-.52-.46-.51-.47-.51-.48-.5-.49-.5-.5-.49-.5-.49-.51-.48-.52-.48-.53-.47-.53-.46-.54-.46-.55-.45-.55-.45-.552-.44-.56-.432-.57-.43-.58-.42-.58-.45-.64-.54-.78-.55-.84-.53-.85-.51-.86-.49-.86-.47-.87-.45-.88-.43-.88-.41-.89-.39-.89-.37-.89-.35-.894-.33-.9-.32-.9-.29-.893-.28-.9-.25-.893-.24-.89-.22-.89-.2-.88-.19-.882-.167-.88-.15-.87-.14-.87-.12-.86-.11-.86-.09-.85-.08-.85-.063-.84-.054-.84-.04-.83-.03-.82-.02-.82-.01-.81v-.8l.015-.8.02-.79.03-.79.04-.78.05-.77.06-.77.06-.77.07-.76.08-.75.09-.74.09-.74.1-.734.1-.73.11-.73.13-.78.24-1.37.27-1.41.29-1.4.3-1.38.316-1.37.33-1.35.347-1.34.356-1.324.364-1.32.38-1.31.39-1.3.4-1.28.4-1.28.41-1.27.41-1.26.42-1.26.43-1.25.43-1.24.44-1.26.86-2.43.88-2.43.88-2.41.88-2.39.87-2.37.86-2.34.84-2.32.827-2.32.39-1.12.4-1.13.39-1.12.38-1.12.37-1.11.36-1.1.35-1.09.34-1.08.33-1.07.32-1.07.31-1.06.3-1.044.29-1.04.28-1.03.26-1.013.25-1 .24-.997.22-.98.21-.96.192-.96.18-.94.167-.925.16-.96.06-.404.06-.45.06-.44.06-.44.06-.43.05-.43.05-.42.043-.426.04-.41.04-.413.04-.41.03-.41.03-.4.02-.4.02-.39.015-.39.014-.39.01-.38v-1.11l-.01-.36-.003-.36-.01-.36-.02-.35-.02-.35-.02-.34-.03-.34-.03-.34-.03-.33-.032-.33-.033-.32-.04-.32-.04-.32-.04-.31-.05-.31-.05-.31-.06-.3-.06-.3-.06-.3-.06-.29-.07-.29-.07-.29-.07-.28-.08-.29-.08-.28-.08-.28-.085-.28-.09-.28-.09-.27-.09-.27-.1-.27-.1-.27-.1-.27-.11-.27-.112-.27-.112-.26-.12-.27-.13-.27-.13-.27-.13-.262-.14-.27-.14-.27-.15-.27-.15-.27-.16-.27-.16-.27-.17-.28-.176-.28-.19-.28-.19-.28-.195-.28-.21-.28-.21-.29-.214-.29-.225-.29-.23-.298-.24-.3-.25-.3-.26-.3-.26-.304-.27-.31-.286-.31-.296-.315-.3-.32-.32-.32-.33-.32-.33-.326-.35-.327-.39-.36-.63-.58-.67-.606-.66-.59-.66-.58-.65-.573-.65-.56-.64-.55-.64-.54-.63-.536-.63-.52-.62-.52-.6-.49-1.25-1.02-1.21-.97-1.2-.94-1.18-.91-1.17-.89-1.16-.86-1.15-.84-1.14-.82-1.13-.8-1.13-.787-1.12-.77-1.114-.756-1.11-.74-1.11-.73-1.11-.72-1.102-.71-1.11-.7-1.11-.7-1.12-.7-1.11-.69-2.276-1.4-4.6-2.82-2.34-1.44-1.207-.75-1.2-.76-1.22-.77-1.23-.78-1.23-.8-1.244-.82-1.26-.84-1.27-.86-1.277-.88-1.28-.91-1.296-.93-1.306-.95-1.31-.98-1.32-1.003-1.32-1.03-1.3-1.04-.7-.57-.67-.55-.67-.56-.67-.56-.67-.58-.68-.58-.675-.59-.67-.6-.67-.6-.674-.61-.68-.62-.675-.63-.67-.64-.68-.65-.67-.657-.672-.665-.67-.67-.67-.68-.68-.69-.675-.7-.68-.71-.675-.72-.67-.73-.67-.73-.678-.747-.67-.76-.67-.763-.69-.792-.52-.62-.537-.64-.53-.64-.52-.65-.51-.65-.5-.652-.5-.66-.49-.67-.48-.67-.476-.67-.47-.68-.46-.68-.455-.69-.44-.68-.44-.69-.43-.7-.43-.698-.42-.7-.41-.707-.4-.71-.39-.71-.39-.71-.38-.71-.37-.72-.36-.72-.35-.725-.35-.73-.34-.73-.33-.73-.32-.74-.32-.74-.31-.74-.31-.74-.29-.75-.29-.75-.28-.74-.28-.75-.27-.75-.26-.76-.25-.756-.24-.76-.24-.76-.23-.76-.22-.76-.22-.77-.2-.77-.2-.76-.2-.765-.19-.77-.18-.77-.17-.77-.16-.77-.16-.77-.15-.77-.14-.77-.14-.78-.13-.774-.12-.774-.11-.77-.11-.77-.1-.78-.09-.78-.09-.78-.077-.78-.07-.78-.07-.79-.06-.78-.05-.78-.04-.78-.032-.784-.02-.78-.02-.78-.014-.78-.01-.78v-.79l.01-.78.02-.78.02-.78.03-.78.03-.78.04-.78.05-.78.06-.78.065-.78.07-.78.07-.78.08-.78.09-.78.1-.77.1-.77.11-.77.11-.77.124-.77.13-.77.14-.77.14-.77.15-.77.16-.77.16-.76.17-.77.18-.767.19-.76.19-.763.2-.76.2-.76.21-.76.22-.75.23-.75.23-.75.24-.753.245-.75.25-.748.254-.75.27-.746.27-.74.28-.74.29-.74.29-.73.3-.732.31-.74.31-.73.32-.73.324-.724.33-.72.34-.72.34-.72.35-.72.4-.79.44-.85.48-.88.48-.86.486-.85.5-.86.515-.87.54-.89.553-.91.58-.94.61-.98 1.25-1.98 1.35-2.12 1.45-2.19 1.51-2.31 1.57-2.39 1.64-2.46 1.69-2.52 1.74-2.57 1.78-2.61 1.8-2.63 1.82-2.65 1.83-2.65 1.84-2.63 1.8-2.59 1.82-2.57 1.795-2.52 1.77-2.46 1.73-2.382 1.69-2.3 1.63-2.19.82-1.08.79-1.04.78-1.01.76-.99.74-.96.73-.94.72-.91.71-.89.705-.86.7-.84.7-.83.72-.82.74-.83.58-.62 1.37-1.38 1.46-1.27 1.54-1.17 1.62-1.06 1.69-.95 1.75-.826 1.81-.7 1.85-.58 1.886-.44 1.91-.31 1.93-.17 1.94-.04 1.94.1z" fill="#ffbb62"/>
  <path d="M1741.06 2400l.61-17.708c0-146.603-124.468-265.625-277.777-265.625-153.31 0-277.777 119.022-277.777 265.625 0 5.95.205 11.855.61 17.708h554.334z" fill="#f0be79"/>
  <path d="M1741.06 2400l.61-17.708c0-146.603-124.468-265.625-277.777-265.625-153.31 0-277.777 119.022-277.777 265.625 0 5.95.205 11.855.61 17.708h554.334z" fill="#fff"/>
  <path d="M970.087 2411.11c-.425-6.426-.64-12.91-.64-19.444 0-160.976 130.69-291.667 291.666-291.667 160.975 0 291.667 130.69 291.667 291.66 0 6.53-.216 13.02-.64 19.44H970.086z" fill="none"/>
  <path d="M1754.91 2411.11h-582.052c-.425-6.426-.64-12.91-.64-19.444 0-160.976 130.69-291.667 291.666-291.667 160.975 0 291.667 130.69 291.667 291.66l-.64 19.44zm-13.86-11.11l.61-17.71c0-146.602-124.467-265.624-277.776-265.624-153.31 0-277.777 119.022-277.777 265.625 0 5.95.205 11.86.61 17.71h554.334z" fill="#f0be79"/>
</svg>
